<svg xmlns="http://www.w3.org/2000/svg" viewBox="0 0 1200 600">
  <defs>
    <marker id="arr" markerWidth="8" markerHeight="6" refX="7" refY="3" orient="auto"><polygon points="0 0, 8 3, 0 6" fill="#1a5276"/></marker>
    <filter id="sh"><feDropShadow dx="1" dy="1" stdDeviation="1.5" flood-opacity="0.12"/></filter>
    <linearGradient id="gdb" x1="0" y1="0" x2="1" y2="0"><stop offset="0%" stop-color="#1a5276"/><stop offset="100%" stop-color="#2980b9"/></linearGradient>
    <linearGradient id="gmb" x1="0" y1="0" x2="1" y2="0"><stop offset="0%" stop-color="#2471a3"/><stop offset="100%" stop-color="#2e86c1"/></linearGradient>
    <linearGradient id="gte" x1="0" y1="0" x2="1" y2="0"><stop offset="0%" stop-color="#1abc9c"/><stop offset="100%" stop-color="#16a085"/></linearGradient>
    <linearGradient id="gdk" x1="0" y1="0" x2="1" y2="0"><stop offset="0%" stop-color="#2c3e50"/><stop offset="100%" stop-color="#1a252f"/></linearGradient>
    <linearGradient id="gor" x1="0" y1="0" x2="1" y2="0"><stop offset="0%" stop-color="#f39c12"/><stop offset="100%" stop-color="#e67e22"/></linearGradient>
    <linearGradient id="grd" x1="0" y1="0" x2="1" y2="0"><stop offset="0%" stop-color="#e74c3c"/><stop offset="100%" stop-color="#c0392b"/></linearGradient>
    <linearGradient id="ggr" x1="0" y1="0" x2="1" y2="0"><stop offset="0%" stop-color="#27ae60"/><stop offset="100%" stop-color="#229954"/></linearGradient>
    <linearGradient id="gpr" x1="0" y1="0" x2="1" y2="0"><stop offset="0%" stop-color="#8e44ad"/><stop offset="100%" stop-color="#6c3483"/></linearGradient>
  </defs>
  <rect width="1200" height="600" fill="#f4f6f9" rx="8"/>
  <text x="600" y="40" font-family="'Microsoft YaHei',sans-serif" font-size="20" font-weight="700" fill="#1a5276" text-anchor="middle">图3-2 商户全景信息图谱数据结构</text>
  <rect x="-35.0" y="85.0" width="230" height="70" rx="8" fill="url(#gdb)" filter="url(#sh)"/>
<text x="80" y="112" font-family="'Microsoft YaHei',sans-serif" font-size="11" font-weight="600" fill="white" text-anchor="middle">自然资源局</text>
<text x="80" y="136" font-family="'Microsoft YaHei',sans-serif" font-size="8" fill="#bdc3c7" text-anchor="middle">用地信息</text>
<rect x="-35.0" y="185.0" width="230" height="70" rx="8" fill="url(#gmb)" filter="url(#sh)"/>
<text x="80" y="212" font-family="'Microsoft YaHei',sans-serif" font-size="11" font-weight="600" fill="white" text-anchor="middle">住建局</text>
<text x="80" y="236" font-family="'Microsoft YaHei',sans-serif" font-size="8" fill="#bdc3c7" text-anchor="middle">房屋信息</text>
<rect x="-35.0" y="285.0" width="230" height="70" rx="8" fill="url(#gte)" filter="url(#sh)"/>
<text x="80" y="312" font-family="'Microsoft YaHei',sans-serif" font-size="11" font-weight="600" fill="white" text-anchor="middle">市场监管局</text>
<text x="80" y="336" font-family="'Microsoft YaHei',sans-serif" font-size="8" fill="#bdc3c7" text-anchor="middle">信用信息</text>
<rect x="-35.0" y="385.0" width="230" height="70" rx="8" fill="url(#gor)" filter="url(#sh)"/>
<text x="80" y="412" font-family="'Microsoft YaHei',sans-serif" font-size="11" font-weight="600" fill="white" text-anchor="middle">综合执法局</text>
<text x="80" y="436" font-family="'Microsoft YaHei',sans-serif" font-size="8" fill="#bdc3c7" text-anchor="middle">执法信息</text>
<rect x="450.0" y="210.0" width="300" height="120" rx="8" fill="url(#gdb)" filter="url(#sh)"/>
<text x="600" y="262" font-family="'Microsoft YaHei',sans-serif" font-size="12" font-weight="600" fill="white" text-anchor="middle">商户基础信息表
merchant_base
主键: 统一社会信用代码</text>
<rect x="1005.0" y="85.0" width="230" height="70" rx="8" fill="url(#gte)" filter="url(#sh)"/>
<text x="1120" y="112" font-family="'Microsoft YaHei',sans-serif" font-size="11" font-weight="600" fill="white" text-anchor="middle">merchant_land</text>
<text x="1120" y="136" font-family="'Microsoft YaHei',sans-serif" font-size="8" fill="#bdc3c7" text-anchor="middle">用地信息</text>
<rect x="1005.0" y="185.0" width="230" height="70" rx="8" fill="url(#gte)" filter="url(#sh)"/>
<text x="1120" y="212" font-family="'Microsoft YaHei',sans-serif" font-size="11" font-weight="600" fill="white" text-anchor="middle">merchant_house</text>
<text x="1120" y="236" font-family="'Microsoft YaHei',sans-serif" font-size="8" fill="#bdc3c7" text-anchor="middle">房屋信息</text>
<rect x="1005.0" y="285.0" width="230" height="70" rx="8" fill="url(#gte)" filter="url(#sh)"/>
<text x="1120" y="312" font-family="'Microsoft YaHei',sans-serif" font-size="11" font-weight="600" fill="white" text-anchor="middle">merchant_credit</text>
<text x="1120" y="336" font-family="'Microsoft YaHei',sans-serif" font-size="8" fill="#bdc3c7" text-anchor="middle">信用信息</text>
<rect x="1005.0" y="385.0" width="230" height="70" rx="8" fill="url(#gte)" filter="url(#sh)"/>
<text x="1120" y="412" font-family="'Microsoft YaHei',sans-serif" font-size="11" font-weight="600" fill="white" text-anchor="middle">merchant_enforce</text>
<text x="1120" y="436" font-family="'Microsoft YaHei',sans-serif" font-size="8" fill="#bdc3c7" text-anchor="middle">执法信息</text>
<line x1="195" y1="120" x2="450" y2="270" stroke="#1a5276" stroke-width="1.5" marker-end="url(#arr)"/>
<line x1="750" y1="270" x2="1005" y2="120" stroke="#1a5276" stroke-width="1.5" marker-end="url(#arr)"/>
<line x1="195" y1="220" x2="450" y2="270" stroke="#1a5276" stroke-width="1.5" marker-end="url(#arr)"/>
<line x1="750" y1="270" x2="1005" y2="220" stroke="#1a5276" stroke-width="1.5" marker-end="url(#arr)"/>
<line x1="195" y1="320" x2="450" y2="270" stroke="#1a5276" stroke-width="1.5" marker-end="url(#arr)"/>
<line x1="750" y1="270" x2="1005" y2="320" stroke="#1a5276" stroke-width="1.5" marker-end="url(#arr)"/>
<line x1="195" y1="420" x2="450" y2="270" stroke="#1a5276" stroke-width="1.5" marker-end="url(#arr)"/>
<line x1="750" y1="270" x2="1005" y2="420" stroke="#1a5276" stroke-width="1.5" marker-end="url(#arr)"/>

  <text x="600" y="600-20" font-family="'Microsoft YaHei',sans-serif" font-size="9" fill="#95a5a6" text-anchor="middle">数字荣成治理提升项目</text>
</svg>