<svg xmlns="http://www.w3.org/2000/svg" viewBox="0 0 1200 560">
  <defs>
    <marker id="arr" markerWidth="8" markerHeight="6" refX="7" refY="3" orient="auto"><polygon points="0 0, 8 3, 0 6" fill="#1a5276"/></marker>
    <filter id="sh"><feDropShadow dx="1" dy="1" stdDeviation="1.5" flood-opacity="0.12"/></filter>
    <linearGradient id="gdb" x1="0" y1="0" x2="1" y2="0"><stop offset="0%" stop-color="#1a5276"/><stop offset="100%" stop-color="#2980b9"/></linearGradient>
    <linearGradient id="gmb" x1="0" y1="0" x2="1" y2="0"><stop offset="0%" stop-color="#2471a3"/><stop offset="100%" stop-color="#2e86c1"/></linearGradient>
    <linearGradient id="gte" x1="0" y1="0" x2="1" y2="0"><stop offset="0%" stop-color="#1abc9c"/><stop offset="100%" stop-color="#16a085"/></linearGradient>
    <linearGradient id="gdk" x1="0" y1="0" x2="1" y2="0"><stop offset="0%" stop-color="#2c3e50"/><stop offset="100%" stop-color="#1a252f"/></linearGradient>
    <linearGradient id="gor" x1="0" y1="0" x2="1" y2="0"><stop offset="0%" stop-color="#f39c12"/><stop offset="100%" stop-color="#e67e22"/></linearGradient>
    <linearGradient id="grd" x1="0" y1="0" x2="1" y2="0"><stop offset="0%" stop-color="#e74c3c"/><stop offset="100%" stop-color="#c0392b"/></linearGradient>
    <linearGradient id="ggr" x1="0" y1="0" x2="1" y2="0"><stop offset="0%" stop-color="#27ae60"/><stop offset="100%" stop-color="#229954"/></linearGradient>
    <linearGradient id="gpr" x1="0" y1="0" x2="1" y2="0"><stop offset="0%" stop-color="#8e44ad"/><stop offset="100%" stop-color="#6c3483"/></linearGradient>
  </defs>
  <rect width="1200" height="560" fill="#f4f6f9" rx="8"/>
  <text x="600" y="40" font-family="'Microsoft YaHei',sans-serif" font-size="20" font-weight="700" fill="#1a5276" text-anchor="middle">图4.4-1 零碳大脑功能架构</text>
  <rect x="30" y="70" width="1140" height="120" rx="10" fill="#ebf5fb" stroke="#2980b9" stroke-width="1.2"/>
<text x="42" y="88" font-family="'Microsoft YaHei',sans-serif" font-size="11" font-weight="700" fill="#2980b9">展示层</text>
<rect x="45.0" y="91.0" width="210" height="78" rx="8" fill="url(#gdb)" filter="url(#sh)"/>
<text x="150" y="122" font-family="'Microsoft YaHei',sans-serif" font-size="12" font-weight="600" fill="white" text-anchor="middle">碳排放全景看板</text>
<rect x="270.0" y="91.0" width="210" height="78" rx="8" fill="url(#gdb)" filter="url(#sh)"/>
<text x="375" y="122" font-family="'Microsoft YaHei',sans-serif" font-size="12" font-weight="600" fill="white" text-anchor="middle">重点排放源监测</text>
<rect x="495.0" y="91.0" width="210" height="78" rx="8" fill="url(#gdb)" filter="url(#sh)"/>
<text x="600" y="122" font-family="'Microsoft YaHei',sans-serif" font-size="12" font-weight="600" fill="white" text-anchor="middle">新能源发展态势</text>
<rect x="720.0" y="91.0" width="210" height="78" rx="8" fill="url(#gdb)" filter="url(#sh)"/>
<text x="825" y="122" font-family="'Microsoft YaHei',sans-serif" font-size="12" font-weight="600" fill="white" text-anchor="middle">碳减排项目管理</text>
<rect x="945.0" y="91.0" width="210" height="78" rx="8" fill="url(#gdb)" filter="url(#sh)"/>
<text x="1050" y="122" font-family="'Microsoft YaHei',sans-serif" font-size="12" font-weight="600" fill="white" text-anchor="middle">碳汇资源展示</text>
<line x1="600" y1="190" x2="600" y2="220" stroke="#1a5276" stroke-width="2" marker-end="url(#arr)"/>
<rect x="30" y="220" width="1140" height="120" rx="10" fill="#e8f8f5" stroke="#16a085" stroke-width="1.2"/>
<text x="42" y="238" font-family="'Microsoft YaHei',sans-serif" font-size="11" font-weight="700" fill="#16a085">分析计算层</text>
<rect x="45.0" y="241.0" width="210" height="78" rx="8" fill="url(#gte)" filter="url(#sh)"/>
<text x="150" y="272" font-family="'Microsoft YaHei',sans-serif" font-size="12" font-weight="600" fill="white" text-anchor="middle">排放核算</text>
<text x="150" y="296" font-family="'Microsoft YaHei',sans-serif" font-size="9" fill="#bdc3c7" text-anchor="middle">IPCC 方法</text>
<rect x="270.0" y="241.0" width="210" height="78" rx="8" fill="url(#gte)" filter="url(#sh)"/>
<text x="375" y="272" font-family="'Microsoft YaHei',sans-serif" font-size="12" font-weight="600" fill="white" text-anchor="middle">趋势预测</text>
<text x="375" y="296" font-family="'Microsoft YaHei',sans-serif" font-size="9" fill="#bdc3c7" text-anchor="middle">时间序列</text>
<rect x="495.0" y="241.0" width="210" height="78" rx="8" fill="url(#gte)" filter="url(#sh)"/>
<text x="600" y="272" font-family="'Microsoft YaHei',sans-serif" font-size="12" font-weight="600" fill="white" text-anchor="middle">行业对比</text>
<text x="600" y="296" font-family="'Microsoft YaHei',sans-serif" font-size="9" fill="#bdc3c7" text-anchor="middle">多维分析</text>
<rect x="720.0" y="241.0" width="210" height="78" rx="8" fill="url(#gte)" filter="url(#sh)"/>
<text x="825" y="272" font-family="'Microsoft YaHei',sans-serif" font-size="12" font-weight="600" fill="white" text-anchor="middle">减排评估</text>
<text x="825" y="296" font-family="'Microsoft YaHei',sans-serif" font-size="9" fill="#bdc3c7" text-anchor="middle">效果追踪</text>
<rect x="945.0" y="241.0" width="210" height="78" rx="8" fill="url(#gte)" filter="url(#sh)"/>
<text x="1050" y="272" font-family="'Microsoft YaHei',sans-serif" font-size="12" font-weight="600" fill="white" text-anchor="middle">碳汇计量</text>
<text x="1050" y="296" font-family="'Microsoft YaHei',sans-serif" font-size="9" fill="#bdc3c7" text-anchor="middle">海洋/林业</text>
<line x1="600" y1="340" x2="600" y2="370" stroke="#1a5276" stroke-width="2" marker-end="url(#arr)"/>
<rect x="30" y="370" width="1140" height="120" rx="10" fill="#e9f7ef" stroke="#27ae60" stroke-width="1.2"/>
<text x="42" y="388" font-family="'Microsoft YaHei',sans-serif" font-size="11" font-weight="700" fill="#27ae60">数据采集层</text>
<rect x="45.0" y="391.0" width="210" height="78" rx="8" fill="url(#ggr)" filter="url(#sh)"/>
<text x="150" y="422" font-family="'Microsoft YaHei',sans-serif" font-size="12" font-weight="600" fill="white" text-anchor="middle">统计局</text>
<text x="150" y="446" font-family="'Microsoft YaHei',sans-serif" font-size="9" fill="#bdc3c7" text-anchor="middle">能源数据</text>
<rect x="270.0" y="391.0" width="210" height="78" rx="8" fill="url(#ggr)" filter="url(#sh)"/>
<text x="375" y="422" font-family="'Microsoft YaHei',sans-serif" font-size="12" font-weight="600" fill="white" text-anchor="middle">供电公司</text>
<text x="375" y="446" font-family="'Microsoft YaHei',sans-serif" font-size="9" fill="#bdc3c7" text-anchor="middle">电力消费</text>
<rect x="495.0" y="391.0" width="210" height="78" rx="8" fill="url(#ggr)" filter="url(#sh)"/>
<text x="600" y="422" font-family="'Microsoft YaHei',sans-serif" font-size="12" font-weight="600" fill="white" text-anchor="middle">生态环境局</text>
<text x="600" y="446" font-family="'Microsoft YaHei',sans-serif" font-size="9" fill="#bdc3c7" text-anchor="middle">排放数据</text>
<rect x="720.0" y="391.0" width="210" height="78" rx="8" fill="url(#ggr)" filter="url(#sh)"/>
<text x="825" y="422" font-family="'Microsoft YaHei',sans-serif" font-size="12" font-weight="600" fill="white" text-anchor="middle">企业直报</text>
<text x="825" y="446" font-family="'Microsoft YaHei',sans-serif" font-size="9" fill="#bdc3c7" text-anchor="middle">月报数据</text>
<rect x="945.0" y="391.0" width="210" height="78" rx="8" fill="url(#ggr)" filter="url(#sh)"/>
<text x="1050" y="422" font-family="'Microsoft YaHei',sans-serif" font-size="12" font-weight="600" fill="white" text-anchor="middle">卫星遥感</text>
<text x="1050" y="446" font-family="'Microsoft YaHei',sans-serif" font-size="9" fill="#bdc3c7" text-anchor="middle">碳汇监测</text>

  <text x="600" y="560-20" font-family="'Microsoft YaHei',sans-serif" font-size="9" fill="#95a5a6" text-anchor="middle">数字荣成治理提升项目</text>
</svg>