<svg xmlns="http://www.w3.org/2000/svg" viewBox="0 0 1200 860">
  <defs>
    <marker id="arr" markerWidth="8" markerHeight="6" refX="7" refY="3" orient="auto"><polygon points="0 0, 8 3, 0 6" fill="#1a5276"/></marker>
    <filter id="sh"><feDropShadow dx="1" dy="1" stdDeviation="1.5" flood-opacity="0.12"/></filter>
    <linearGradient id="gdb" x1="0" y1="0" x2="1" y2="0"><stop offset="0%" stop-color="#1a5276"/><stop offset="100%" stop-color="#2980b9"/></linearGradient>
    <linearGradient id="gmb" x1="0" y1="0" x2="1" y2="0"><stop offset="0%" stop-color="#2471a3"/><stop offset="100%" stop-color="#2e86c1"/></linearGradient>
    <linearGradient id="gte" x1="0" y1="0" x2="1" y2="0"><stop offset="0%" stop-color="#1abc9c"/><stop offset="100%" stop-color="#16a085"/></linearGradient>
    <linearGradient id="gdk" x1="0" y1="0" x2="1" y2="0"><stop offset="0%" stop-color="#2c3e50"/><stop offset="100%" stop-color="#1a252f"/></linearGradient>
    <linearGradient id="gor" x1="0" y1="0" x2="1" y2="0"><stop offset="0%" stop-color="#f39c12"/><stop offset="100%" stop-color="#e67e22"/></linearGradient>
    <linearGradient id="grd" x1="0" y1="0" x2="1" y2="0"><stop offset="0%" stop-color="#e74c3c"/><stop offset="100%" stop-color="#c0392b"/></linearGradient>
    <linearGradient id="ggr" x1="0" y1="0" x2="1" y2="0"><stop offset="0%" stop-color="#27ae60"/><stop offset="100%" stop-color="#229954"/></linearGradient>
    <linearGradient id="gpr" x1="0" y1="0" x2="1" y2="0"><stop offset="0%" stop-color="#8e44ad"/><stop offset="100%" stop-color="#6c3483"/></linearGradient>
  </defs>
  <rect width="1200" height="860" fill="#f4f6f9" rx="8"/>
  <text x="600" y="40" font-family="'Microsoft YaHei',sans-serif" font-size="20" font-weight="700" fill="#1a5276" text-anchor="middle">图5-1 系统总体技术架构</text>
  <rect x="30" y="70" width="1140" height="120" rx="10" fill="#ebf5fb" stroke="#2980b9" stroke-width="1.2"/>
<text x="42" y="88" font-family="'Microsoft YaHei',sans-serif" font-size="11" font-weight="700" fill="#2980b9">展示层</text>
<rect x="157.0" y="91.0" width="210" height="78" rx="8" fill="url(#gdb)" filter="url(#sh)"/>
<text x="262" y="122" font-family="'Microsoft YaHei',sans-serif" font-size="12" font-weight="600" fill="white" text-anchor="middle">PC端 Web</text>
<text x="262" y="146" font-family="'Microsoft YaHei',sans-serif" font-size="9" fill="#bdc3c7" text-anchor="middle">管理后台 · 数据看板</text>
<rect x="494.0" y="91.0" width="210" height="78" rx="8" fill="url(#gdb)" filter="url(#sh)"/>
<text x="599" y="122" font-family="'Microsoft YaHei',sans-serif" font-size="12" font-weight="600" fill="white" text-anchor="middle">大屏展示</text>
<text x="599" y="146" font-family="'Microsoft YaHei',sans-serif" font-size="9" fill="#bdc3c7" text-anchor="middle">分辨率 3840×2160</text>
<rect x="831.0" y="91.0" width="210" height="78" rx="8" fill="url(#gdb)" filter="url(#sh)"/>
<text x="936" y="122" font-family="'Microsoft YaHei',sans-serif" font-size="12" font-weight="600" fill="white" text-anchor="middle">移动端 App</text>
<text x="936" y="146" font-family="'Microsoft YaHei',sans-serif" font-size="9" fill="#bdc3c7" text-anchor="middle">接入山东通平台</text>
<line x1="600" y1="190" x2="600" y2="220" stroke="#1a5276" stroke-width="2" marker-end="url(#arr)"/>
<rect x="30" y="220" width="1140" height="120" rx="10" fill="#eaf2f8" stroke="#2471a3" stroke-width="1.2"/>
<text x="42" y="238" font-family="'Microsoft YaHei',sans-serif" font-size="11" font-weight="700" fill="#2471a3">应用层</text>
<rect x="90.0" y="241.0" width="210" height="78" rx="8" fill="url(#gmb)" filter="url(#sh)"/>
<text x="195" y="272" font-family="'Microsoft YaHei',sans-serif" font-size="12" font-weight="600" fill="white" text-anchor="middle">社会治理</text>
<text x="195" y="296" font-family="'Microsoft YaHei',sans-serif" font-size="9" fill="#bdc3c7" text-anchor="middle">应用场景</text>
<rect x="360.0" y="241.0" width="210" height="78" rx="8" fill="url(#gmb)" filter="url(#sh)"/>
<text x="465" y="272" font-family="'Microsoft YaHei',sans-serif" font-size="12" font-weight="600" fill="white" text-anchor="middle">应急指挥</text>
<text x="465" y="296" font-family="'Microsoft YaHei',sans-serif" font-size="9" fill="#bdc3c7" text-anchor="middle">能力提升</text>
<rect x="630.0" y="241.0" width="210" height="78" rx="8" fill="url(#gmb)" filter="url(#sh)"/>
<text x="735" y="272" font-family="'Microsoft YaHei',sans-serif" font-size="12" font-weight="600" fill="white" text-anchor="middle">零碳大脑</text>
<text x="735" y="296" font-family="'Microsoft YaHei',sans-serif" font-size="9" fill="#bdc3c7" text-anchor="middle">建设</text>
<rect x="900.0" y="241.0" width="210" height="78" rx="8" fill="url(#gmb)" filter="url(#sh)"/>
<text x="1005" y="272" font-family="'Microsoft YaHei',sans-serif" font-size="12" font-weight="600" fill="white" text-anchor="middle">数字人</text>
<text x="1005" y="296" font-family="'Microsoft YaHei',sans-serif" font-size="9" fill="#bdc3c7" text-anchor="middle">智能解说</text>
<line x1="600" y1="340" x2="600" y2="370" stroke="#1a5276" stroke-width="2" marker-end="url(#arr)"/>
<rect x="30" y="370" width="1140" height="120" rx="10" fill="#e8f8f5" stroke="#16a085" stroke-width="1.2"/>
<text x="42" y="388" font-family="'Microsoft YaHei',sans-serif" font-size="11" font-weight="700" fill="#16a085">服务层</text>
<rect x="90.0" y="391.0" width="210" height="78" rx="8" fill="url(#gte)" filter="url(#sh)"/>
<text x="195" y="422" font-family="'Microsoft YaHei',sans-serif" font-size="12" font-weight="600" fill="white" text-anchor="middle">RESTful API</text>
<text x="195" y="446" font-family="'Microsoft YaHei',sans-serif" font-size="9" fill="#bdc3c7" text-anchor="middle">网关</text>
<rect x="360.0" y="391.0" width="210" height="78" rx="8" fill="url(#gte)" filter="url(#sh)"/>
<text x="465" y="422" font-family="'Microsoft YaHei',sans-serif" font-size="12" font-weight="600" fill="white" text-anchor="middle">WebSocket</text>
<text x="465" y="446" font-family="'Microsoft YaHei',sans-serif" font-size="9" fill="#bdc3c7" text-anchor="middle">实时推送</text>
<rect x="630.0" y="391.0" width="210" height="78" rx="8" fill="url(#gte)" filter="url(#sh)"/>
<text x="735" y="422" font-family="'Microsoft YaHei',sans-serif" font-size="12" font-weight="600" fill="white" text-anchor="middle">RabbitMQ</text>
<text x="735" y="446" font-family="'Microsoft YaHei',sans-serif" font-size="9" fill="#bdc3c7" text-anchor="middle">消息队列</text>
<rect x="900.0" y="391.0" width="210" height="78" rx="8" fill="url(#gte)" filter="url(#sh)"/>
<text x="1005" y="422" font-family="'Microsoft YaHei',sans-serif" font-size="12" font-weight="600" fill="white" text-anchor="middle">XXL-Job</text>
<text x="1005" y="446" font-family="'Microsoft YaHei',sans-serif" font-size="9" fill="#bdc3c7" text-anchor="middle">定时任务</text>
<line x1="600" y1="490" x2="600" y2="520" stroke="#1a5276" stroke-width="2" marker-end="url(#arr)"/>
<rect x="30" y="520" width="1140" height="120" rx="10" fill="#f2f3f4" stroke="#2c3e50" stroke-width="1.2"/>
<text x="42" y="538" font-family="'Microsoft YaHei',sans-serif" font-size="11" font-weight="700" fill="#2c3e50">数据层</text>
<rect x="90.0" y="541.0" width="210" height="78" rx="8" fill="url(#gdk)" filter="url(#sh)"/>
<text x="195" y="572" font-family="'Microsoft YaHei',sans-serif" font-size="12" font-weight="600" fill="white" text-anchor="middle">MySQL 8.0</text>
<text x="195" y="596" font-family="'Microsoft YaHei',sans-serif" font-size="9" fill="#bdc3c7" text-anchor="middle">业务库</text>
<rect x="360.0" y="541.0" width="210" height="78" rx="8" fill="url(#gdk)" filter="url(#sh)"/>
<text x="465" y="572" font-family="'Microsoft YaHei',sans-serif" font-size="12" font-weight="600" fill="white" text-anchor="middle">Redis</text>
<text x="465" y="596" font-family="'Microsoft YaHei',sans-serif" font-size="9" fill="#bdc3c7" text-anchor="middle">缓存集群</text>
<rect x="630.0" y="541.0" width="210" height="78" rx="8" fill="url(#gdk)" filter="url(#sh)"/>
<text x="735" y="572" font-family="'Microsoft YaHei',sans-serif" font-size="12" font-weight="600" fill="white" text-anchor="middle">Elasticsearch</text>
<text x="735" y="596" font-family="'Microsoft YaHei',sans-serif" font-size="9" fill="#bdc3c7" text-anchor="middle">搜索引擎</text>
<rect x="900.0" y="541.0" width="210" height="78" rx="8" fill="url(#gdk)" filter="url(#sh)"/>
<text x="1005" y="572" font-family="'Microsoft YaHei',sans-serif" font-size="12" font-weight="600" fill="white" text-anchor="middle">MinIO</text>
<text x="1005" y="596" font-family="'Microsoft YaHei',sans-serif" font-size="9" fill="#bdc3c7" text-anchor="middle">对象存储</text>
<line x1="600" y1="640" x2="600" y2="670" stroke="#1a5276" stroke-width="2" marker-end="url(#arr)"/>
<rect x="30" y="670" width="1140" height="120" rx="10" fill="#fdf2e9" stroke="#e67e22" stroke-width="1.2"/>
<text x="42" y="688" font-family="'Microsoft YaHei',sans-serif" font-size="11" font-weight="700" fill="#e67e22">基础设施层</text>
<rect x="157.0" y="691.0" width="210" height="78" rx="8" fill="url(#gor)" filter="url(#sh)"/>
<text x="262" y="722" font-family="'Microsoft YaHei',sans-serif" font-size="12" font-weight="600" fill="white" text-anchor="middle">政务云服务器</text>
<text x="262" y="746" font-family="'Microsoft YaHei',sans-serif" font-size="9" fill="#bdc3c7" text-anchor="middle">荣成市大数据中心</text>
<rect x="494.0" y="691.0" width="210" height="78" rx="8" fill="url(#gor)" filter="url(#sh)"/>
<text x="599" y="722" font-family="'Microsoft YaHei',sans-serif" font-size="12" font-weight="600" fill="white" text-anchor="middle">K3s 容器编排</text>
<text x="599" y="746" font-family="'Microsoft YaHei',sans-serif" font-size="9" fill="#bdc3c7" text-anchor="middle">轻量 Kubernetes</text>
<rect x="831.0" y="691.0" width="210" height="78" rx="8" fill="url(#gor)" filter="url(#sh)"/>
<text x="936" y="722" font-family="'Microsoft YaHei',sans-serif" font-size="12" font-weight="600" fill="white" text-anchor="middle">麒麟 V10</text>
<text x="936" y="746" font-family="'Microsoft YaHei',sans-serif" font-size="9" fill="#bdc3c7" text-anchor="middle">信创操作系统</text>

  <text x="600" y="860-20" font-family="'Microsoft YaHei',sans-serif" font-size="9" fill="#95a5a6" text-anchor="middle">数字荣成治理提升项目</text>
</svg>