<svg xmlns="http://www.w3.org/2000/svg" viewBox="0 0 1200 860">
  <defs>
    <marker id="arr" markerWidth="8" markerHeight="6" refX="7" refY="3" orient="auto"><polygon points="0 0, 8 3, 0 6" fill="#1a5276"/></marker>
    <filter id="sh"><feDropShadow dx="1" dy="1" stdDeviation="1.5" flood-opacity="0.12"/></filter>
    <linearGradient id="gdb" x1="0" y1="0" x2="1" y2="0"><stop offset="0%" stop-color="#1a5276"/><stop offset="100%" stop-color="#2980b9"/></linearGradient>
    <linearGradient id="gmb" x1="0" y1="0" x2="1" y2="0"><stop offset="0%" stop-color="#2471a3"/><stop offset="100%" stop-color="#2e86c1"/></linearGradient>
    <linearGradient id="gte" x1="0" y1="0" x2="1" y2="0"><stop offset="0%" stop-color="#1abc9c"/><stop offset="100%" stop-color="#16a085"/></linearGradient>
    <linearGradient id="gdk" x1="0" y1="0" x2="1" y2="0"><stop offset="0%" stop-color="#2c3e50"/><stop offset="100%" stop-color="#1a252f"/></linearGradient>
    <linearGradient id="gor" x1="0" y1="0" x2="1" y2="0"><stop offset="0%" stop-color="#f39c12"/><stop offset="100%" stop-color="#e67e22"/></linearGradient>
    <linearGradient id="grd" x1="0" y1="0" x2="1" y2="0"><stop offset="0%" stop-color="#e74c3c"/><stop offset="100%" stop-color="#c0392b"/></linearGradient>
    <linearGradient id="ggr" x1="0" y1="0" x2="1" y2="0"><stop offset="0%" stop-color="#27ae60"/><stop offset="100%" stop-color="#229954"/></linearGradient>
    <linearGradient id="gpr" x1="0" y1="0" x2="1" y2="0"><stop offset="0%" stop-color="#8e44ad"/><stop offset="100%" stop-color="#6c3483"/></linearGradient>
  </defs>
  <rect width="1200" height="860" fill="#f4f6f9" rx="8"/>
  <text x="600" y="40" font-family="'Microsoft YaHei',sans-serif" font-size="20" font-weight="700" fill="#1a5276" text-anchor="middle">图5-2 数据流转与集成设计</text>
  <rect x="30" y="70" width="1140" height="120" rx="10" fill="#ebf5fb" stroke="#2980b9" stroke-width="1.2"/>
<text x="42" y="88" font-family="'Microsoft YaHei',sans-serif" font-size="11" font-weight="700" fill="#2980b9">采集层</text>
<rect x="45.0" y="91.0" width="210" height="78" rx="8" fill="url(#gdb)" filter="url(#sh)"/>
<text x="150" y="122" font-family="'Microsoft YaHei',sans-serif" font-size="12" font-weight="600" fill="white" text-anchor="middle">API 采集</text>
<text x="150" y="146" font-family="'Microsoft YaHei',sans-serif" font-size="9" fill="#bdc3c7" text-anchor="middle">RESTful/JSON</text>
<rect x="270.0" y="91.0" width="210" height="78" rx="8" fill="url(#gdb)" filter="url(#sh)"/>
<text x="375" y="122" font-family="'Microsoft YaHei',sans-serif" font-size="12" font-weight="600" fill="white" text-anchor="middle">数据库同步</text>
<text x="375" y="146" font-family="'Microsoft YaHei',sans-serif" font-size="9" fill="#bdc3c7" text-anchor="middle">定时任务</text>
<rect x="495.0" y="91.0" width="210" height="78" rx="8" fill="url(#gdb)" filter="url(#sh)"/>
<text x="600" y="122" font-family="'Microsoft YaHei',sans-serif" font-size="12" font-weight="600" fill="white" text-anchor="middle">文件导入</text>
<text x="600" y="146" font-family="'Microsoft YaHei',sans-serif" font-size="9" fill="#bdc3c7" text-anchor="middle">Excel/CSV</text>
<rect x="720.0" y="91.0" width="210" height="78" rx="8" fill="url(#gdb)" filter="url(#sh)"/>
<text x="825" y="122" font-family="'Microsoft YaHei',sans-serif" font-size="12" font-weight="600" fill="white" text-anchor="middle">人工录入</text>
<text x="825" y="146" font-family="'Microsoft YaHei',sans-serif" font-size="9" fill="#bdc3c7" text-anchor="middle">移动端+PC</text>
<rect x="945.0" y="91.0" width="210" height="78" rx="8" fill="url(#gdb)" filter="url(#sh)"/>
<text x="1050" y="122" font-family="'Microsoft YaHei',sans-serif" font-size="12" font-weight="600" fill="white" text-anchor="middle">实时流接入</text>
<text x="1050" y="146" font-family="'Microsoft YaHei',sans-serif" font-size="9" fill="#bdc3c7" text-anchor="middle">WebSocket</text>
<line x1="600" y1="190" x2="600" y2="220" stroke="#1a5276" stroke-width="2" marker-end="url(#arr)"/>
<rect x="30" y="220" width="1140" height="120" rx="10" fill="#eaf2f8" stroke="#2471a3" stroke-width="1.2"/>
<text x="42" y="238" font-family="'Microsoft YaHei',sans-serif" font-size="11" font-weight="700" fill="#2471a3">处理层</text>
<rect x="45.0" y="241.0" width="210" height="78" rx="8" fill="url(#gmb)" filter="url(#sh)"/>
<text x="150" y="272" font-family="'Microsoft YaHei',sans-serif" font-size="12" font-weight="600" fill="white" text-anchor="middle">数据清洗</text>
<text x="150" y="296" font-family="'Microsoft YaHei',sans-serif" font-size="9" fill="#bdc3c7" text-anchor="middle">去重·补缺</text>
<rect x="270.0" y="241.0" width="210" height="78" rx="8" fill="url(#gmb)" filter="url(#sh)"/>
<text x="375" y="272" font-family="'Microsoft YaHei',sans-serif" font-size="12" font-weight="600" fill="white" text-anchor="middle">格式转换</text>
<text x="375" y="296" font-family="'Microsoft YaHei',sans-serif" font-size="9" fill="#bdc3c7" text-anchor="middle">统一编码</text>
<rect x="495.0" y="241.0" width="210" height="78" rx="8" fill="url(#gmb)" filter="url(#sh)"/>
<text x="600" y="272" font-family="'Microsoft YaHei',sans-serif" font-size="12" font-weight="600" fill="white" text-anchor="middle">数据关联</text>
<text x="600" y="296" font-family="'Microsoft YaHei',sans-serif" font-size="9" fill="#bdc3c7" text-anchor="middle">信用代码</text>
<rect x="720.0" y="241.0" width="210" height="78" rx="8" fill="url(#gmb)" filter="url(#sh)"/>
<text x="825" y="272" font-family="'Microsoft YaHei',sans-serif" font-size="12" font-weight="600" fill="white" text-anchor="middle">质量校验</text>
<text x="825" y="296" font-family="'Microsoft YaHei',sans-serif" font-size="9" fill="#bdc3c7" text-anchor="middle">规则引擎</text>
<rect x="945.0" y="241.0" width="210" height="78" rx="8" fill="url(#gmb)" filter="url(#sh)"/>
<text x="1050" y="272" font-family="'Microsoft YaHei',sans-serif" font-size="12" font-weight="600" fill="white" text-anchor="middle">指标计算</text>
<text x="1050" y="296" font-family="'Microsoft YaHei',sans-serif" font-size="9" fill="#bdc3c7" text-anchor="middle">聚合·派生</text>
<line x1="600" y1="340" x2="600" y2="370" stroke="#1a5276" stroke-width="2" marker-end="url(#arr)"/>
<rect x="30" y="370" width="1140" height="120" rx="10" fill="#e8f8f5" stroke="#16a085" stroke-width="1.2"/>
<text x="42" y="388" font-family="'Microsoft YaHei',sans-serif" font-size="11" font-weight="700" fill="#16a085">存储层</text>
<rect x="45.0" y="391.0" width="210" height="78" rx="8" fill="url(#gte)" filter="url(#sh)"/>
<text x="150" y="422" font-family="'Microsoft YaHei',sans-serif" font-size="12" font-weight="600" fill="white" text-anchor="middle">MySQL/达梦</text>
<text x="150" y="446" font-family="'Microsoft YaHei',sans-serif" font-size="9" fill="#bdc3c7" text-anchor="middle">业务主库</text>
<rect x="270.0" y="391.0" width="210" height="78" rx="8" fill="url(#gte)" filter="url(#sh)"/>
<text x="375" y="422" font-family="'Microsoft YaHei',sans-serif" font-size="12" font-weight="600" fill="white" text-anchor="middle">Redis</text>
<text x="375" y="446" font-family="'Microsoft YaHei',sans-serif" font-size="9" fill="#bdc3c7" text-anchor="middle">缓存+实时</text>
<rect x="495.0" y="391.0" width="210" height="78" rx="8" fill="url(#gte)" filter="url(#sh)"/>
<text x="600" y="422" font-family="'Microsoft YaHei',sans-serif" font-size="12" font-weight="600" fill="white" text-anchor="middle">Elasticsearch</text>
<text x="600" y="446" font-family="'Microsoft YaHei',sans-serif" font-size="9" fill="#bdc3c7" text-anchor="middle">全文检索</text>
<rect x="720.0" y="391.0" width="210" height="78" rx="8" fill="url(#gte)" filter="url(#sh)"/>
<text x="825" y="422" font-family="'Microsoft YaHei',sans-serif" font-size="12" font-weight="600" fill="white" text-anchor="middle">MinIO</text>
<text x="825" y="446" font-family="'Microsoft YaHei',sans-serif" font-size="9" fill="#bdc3c7" text-anchor="middle">文件存储</text>
<rect x="945.0" y="391.0" width="210" height="78" rx="8" fill="url(#gte)" filter="url(#sh)"/>
<text x="1050" y="422" font-family="'Microsoft YaHei',sans-serif" font-size="12" font-weight="600" fill="white" text-anchor="middle">Kafka</text>
<text x="1050" y="446" font-family="'Microsoft YaHei',sans-serif" font-size="9" fill="#bdc3c7" text-anchor="middle">消息队列</text>
<line x1="600" y1="490" x2="600" y2="520" stroke="#1a5276" stroke-width="2" marker-end="url(#arr)"/>
<rect x="30" y="520" width="1140" height="120" rx="10" fill="#fef9e7" stroke="#e67e22" stroke-width="1.2"/>
<text x="42" y="538" font-family="'Microsoft YaHei',sans-serif" font-size="11" font-weight="700" fill="#e67e22">服务层</text>
<rect x="45.0" y="541.0" width="210" height="78" rx="8" fill="url(#gor)" filter="url(#sh)"/>
<text x="150" y="572" font-family="'Microsoft YaHei',sans-serif" font-size="12" font-weight="600" fill="white" text-anchor="middle">RESTful API</text>
<text x="150" y="596" font-family="'Microsoft YaHei',sans-serif" font-size="9" fill="#bdc3c7" text-anchor="middle">数据查询</text>
<rect x="270.0" y="541.0" width="210" height="78" rx="8" fill="url(#gor)" filter="url(#sh)"/>
<text x="375" y="572" font-family="'Microsoft YaHei',sans-serif" font-size="12" font-weight="600" fill="white" text-anchor="middle">WebSocket</text>
<text x="375" y="596" font-family="'Microsoft YaHei',sans-serif" font-size="9" fill="#bdc3c7" text-anchor="middle">实时推送</text>
<rect x="495.0" y="541.0" width="210" height="78" rx="8" fill="url(#gor)" filter="url(#sh)"/>
<text x="600" y="572" font-family="'Microsoft YaHei',sans-serif" font-size="12" font-weight="600" fill="white" text-anchor="middle">XXL-Job</text>
<text x="600" y="596" font-family="'Microsoft YaHei',sans-serif" font-size="9" fill="#bdc3c7" text-anchor="middle">任务调度</text>
<rect x="720.0" y="541.0" width="210" height="78" rx="8" fill="url(#gor)" filter="url(#sh)"/>
<text x="825" y="572" font-family="'Microsoft YaHei',sans-serif" font-size="12" font-weight="600" fill="white" text-anchor="middle">RabbitMQ</text>
<text x="825" y="596" font-family="'Microsoft YaHei',sans-serif" font-size="9" fill="#bdc3c7" text-anchor="middle">事件消息</text>
<rect x="945.0" y="541.0" width="210" height="78" rx="8" fill="url(#gor)" filter="url(#sh)"/>
<text x="1050" y="572" font-family="'Microsoft YaHei',sans-serif" font-size="12" font-weight="600" fill="white" text-anchor="middle">API Gateway</text>
<text x="1050" y="596" font-family="'Microsoft YaHei',sans-serif" font-size="9" fill="#bdc3c7" text-anchor="middle">统一网关</text>
<line x1="600" y1="640" x2="600" y2="670" stroke="#1a5276" stroke-width="2" marker-end="url(#arr)"/>
<rect x="30" y="670" width="1140" height="120" rx="10" fill="#e9f7ef" stroke="#27ae60" stroke-width="1.2"/>
<text x="42" y="688" font-family="'Microsoft YaHei',sans-serif" font-size="11" font-weight="700" fill="#27ae60">展示层</text>
<rect x="45.0" y="691.0" width="210" height="78" rx="8" fill="url(#ggr)" filter="url(#sh)"/>
<text x="150" y="722" font-family="'Microsoft YaHei',sans-serif" font-size="12" font-weight="600" fill="white" text-anchor="middle">PC端 Web</text>
<text x="150" y="746" font-family="'Microsoft YaHei',sans-serif" font-size="9" fill="#bdc3c7" text-anchor="middle">管理后台</text>
<rect x="270.0" y="691.0" width="210" height="78" rx="8" fill="url(#ggr)" filter="url(#sh)"/>
<text x="375" y="722" font-family="'Microsoft YaHei',sans-serif" font-size="12" font-weight="600" fill="white" text-anchor="middle">大屏展示</text>
<text x="375" y="746" font-family="'Microsoft YaHei',sans-serif" font-size="9" fill="#bdc3c7" text-anchor="middle">3840×2160</text>
<rect x="495.0" y="691.0" width="210" height="78" rx="8" fill="url(#ggr)" filter="url(#sh)"/>
<text x="600" y="722" font-family="'Microsoft YaHei',sans-serif" font-size="12" font-weight="600" fill="white" text-anchor="middle">移动端</text>
<text x="600" y="746" font-family="'Microsoft YaHei',sans-serif" font-size="9" fill="#bdc3c7" text-anchor="middle">山东通App</text>
<rect x="720.0" y="691.0" width="210" height="78" rx="8" fill="url(#ggr)" filter="url(#sh)"/>
<text x="825" y="722" font-family="'Microsoft YaHei',sans-serif" font-size="12" font-weight="600" fill="white" text-anchor="middle">数据报表</text>
<text x="825" y="746" font-family="'Microsoft YaHei',sans-serif" font-size="9" fill="#bdc3c7" text-anchor="middle">自动导出</text>
<rect x="945.0" y="691.0" width="210" height="78" rx="8" fill="url(#ggr)" filter="url(#sh)"/>
<text x="1050" y="722" font-family="'Microsoft YaHei',sans-serif" font-size="12" font-weight="600" fill="white" text-anchor="middle">接口开放</text>
<text x="1050" y="746" font-family="'Microsoft YaHei',sans-serif" font-size="9" fill="#bdc3c7" text-anchor="middle">开发者</text>

  <text x="600" y="860-20" font-family="'Microsoft YaHei',sans-serif" font-size="9" fill="#95a5a6" text-anchor="middle">数字荣成治理提升项目</text>
</svg>