<svg xmlns="http://www.w3.org/2000/svg" viewBox="0 0 1200 560">
  <defs>
    <marker id="arr" markerWidth="8" markerHeight="6" refX="7" refY="3" orient="auto"><polygon points="0 0, 8 3, 0 6" fill="#1a5276"/></marker>
    <filter id="sh"><feDropShadow dx="1" dy="1" stdDeviation="1.5" flood-opacity="0.12"/></filter>
    <linearGradient id="gdb" x1="0" y1="0" x2="1" y2="0"><stop offset="0%" stop-color="#1a5276"/><stop offset="100%" stop-color="#2980b9"/></linearGradient>
    <linearGradient id="gmb" x1="0" y1="0" x2="1" y2="0"><stop offset="0%" stop-color="#2471a3"/><stop offset="100%" stop-color="#2e86c1"/></linearGradient>
    <linearGradient id="gte" x1="0" y1="0" x2="1" y2="0"><stop offset="0%" stop-color="#1abc9c"/><stop offset="100%" stop-color="#16a085"/></linearGradient>
    <linearGradient id="gdk" x1="0" y1="0" x2="1" y2="0"><stop offset="0%" stop-color="#2c3e50"/><stop offset="100%" stop-color="#1a252f"/></linearGradient>
    <linearGradient id="gor" x1="0" y1="0" x2="1" y2="0"><stop offset="0%" stop-color="#f39c12"/><stop offset="100%" stop-color="#e67e22"/></linearGradient>
    <linearGradient id="grd" x1="0" y1="0" x2="1" y2="0"><stop offset="0%" stop-color="#e74c3c"/><stop offset="100%" stop-color="#c0392b"/></linearGradient>
    <linearGradient id="ggr" x1="0" y1="0" x2="1" y2="0"><stop offset="0%" stop-color="#27ae60"/><stop offset="100%" stop-color="#229954"/></linearGradient>
    <linearGradient id="gpr" x1="0" y1="0" x2="1" y2="0"><stop offset="0%" stop-color="#8e44ad"/><stop offset="100%" stop-color="#6c3483"/></linearGradient>
  </defs>
  <rect width="1200" height="560" fill="#f4f6f9" rx="8"/>
  <text x="600" y="40" font-family="'Microsoft YaHei',sans-serif" font-size="20" font-weight="700" fill="#1a5276" text-anchor="middle">附图9-1 零碳大脑驾驶舱界面示意</text>
  <rect x="30" y="70" width="1140" height="120" rx="10" fill="#ebf5fb" stroke="#2980b9" stroke-width="1.2"/>
<text x="42" y="88" font-family="'Microsoft YaHei',sans-serif" font-size="11" font-weight="700" fill="#2980b9">核心指标区</text>
<rect x="90.0" y="91.0" width="210" height="78" rx="8" fill="url(#gdb)" filter="url(#sh)"/>
<text x="195" y="122" font-family="'Microsoft YaHei',sans-serif" font-size="12" font-weight="600" fill="white" text-anchor="middle">碳排放总量</text>
<text x="195" y="146" font-family="'Microsoft YaHei',sans-serif" font-size="9" fill="#bdc3c7" text-anchor="middle">XX 万吨</text>
<rect x="360.0" y="91.0" width="210" height="78" rx="8" fill="url(#gdb)" filter="url(#sh)"/>
<text x="465" y="122" font-family="'Microsoft YaHei',sans-serif" font-size="12" font-weight="600" fill="white" text-anchor="middle">单位GDP碳排</text>
<text x="465" y="146" font-family="'Microsoft YaHei',sans-serif" font-size="9" fill="#bdc3c7" text-anchor="middle">X.XX t/万元</text>
<rect x="630.0" y="91.0" width="210" height="78" rx="8" fill="url(#gdb)" filter="url(#sh)"/>
<text x="735" y="122" font-family="'Microsoft YaHei',sans-serif" font-size="12" font-weight="600" fill="white" text-anchor="middle">清洁能源占比</text>
<text x="735" y="146" font-family="'Microsoft YaHei',sans-serif" font-size="9" fill="#bdc3c7" text-anchor="middle">XX%</text>
<rect x="900.0" y="91.0" width="210" height="78" rx="8" fill="url(#gdb)" filter="url(#sh)"/>
<text x="1005" y="122" font-family="'Microsoft YaHei',sans-serif" font-size="12" font-weight="600" fill="white" text-anchor="middle">减排目标完成</text>
<text x="1005" y="146" font-family="'Microsoft YaHei',sans-serif" font-size="9" fill="#bdc3c7" text-anchor="middle">XX%</text>
<line x1="600" y1="190" x2="600" y2="220" stroke="#1a5276" stroke-width="2" marker-end="url(#arr)"/>
<rect x="30" y="220" width="1140" height="120" rx="10" fill="#e8f8f5" stroke="#16a085" stroke-width="1.2"/>
<text x="42" y="238" font-family="'Microsoft YaHei',sans-serif" font-size="11" font-weight="700" fill="#16a085">分析区</text>
<rect x="90.0" y="241.0" width="210" height="78" rx="8" fill="url(#gte)" filter="url(#sh)"/>
<text x="195" y="272" font-family="'Microsoft YaHei',sans-serif" font-size="12" font-weight="600" fill="white" text-anchor="middle">碳排放趋势</text>
<text x="195" y="296" font-family="'Microsoft YaHei',sans-serif" font-size="9" fill="#bdc3c7" text-anchor="middle">近5年</text>
<rect x="360.0" y="241.0" width="210" height="78" rx="8" fill="url(#gte)" filter="url(#sh)"/>
<text x="465" y="272" font-family="'Microsoft YaHei',sans-serif" font-size="12" font-weight="600" fill="white" text-anchor="middle">结构分解</text>
<text x="465" y="296" font-family="'Microsoft YaHei',sans-serif" font-size="9" fill="#bdc3c7" text-anchor="middle">饼图</text>
<rect x="630.0" y="241.0" width="210" height="78" rx="8" fill="url(#gte)" filter="url(#sh)"/>
<text x="735" y="272" font-family="'Microsoft YaHei',sans-serif" font-size="12" font-weight="600" fill="white" text-anchor="middle">重点排放源</text>
<text x="735" y="296" font-family="'Microsoft YaHei',sans-serif" font-size="9" fill="#bdc3c7" text-anchor="middle">TOP5</text>
<rect x="900.0" y="241.0" width="210" height="78" rx="8" fill="url(#gte)" filter="url(#sh)"/>
<text x="1005" y="272" font-family="'Microsoft YaHei',sans-serif" font-size="12" font-weight="600" fill="white" text-anchor="middle">碳汇资源</text>
<text x="1005" y="296" font-family="'Microsoft YaHei',sans-serif" font-size="9" fill="#bdc3c7" text-anchor="middle">海洋/林业</text>
<line x1="600" y1="340" x2="600" y2="370" stroke="#1a5276" stroke-width="2" marker-end="url(#arr)"/>
<rect x="30" y="370" width="1140" height="120" rx="10" fill="#e9f7ef" stroke="#27ae60" stroke-width="1.2"/>
<text x="42" y="388" font-family="'Microsoft YaHei',sans-serif" font-size="11" font-weight="700" fill="#27ae60">项目区</text>
<rect x="90.0" y="391.0" width="210" height="78" rx="8" fill="url(#ggr)" filter="url(#sh)"/>
<text x="195" y="422" font-family="'Microsoft YaHei',sans-serif" font-size="12" font-weight="600" fill="white" text-anchor="middle">减排项目</text>
<text x="195" y="446" font-family="'Microsoft YaHei',sans-serif" font-size="9" fill="#bdc3c7" text-anchor="middle">台账管理</text>
<rect x="360.0" y="391.0" width="210" height="78" rx="8" fill="url(#ggr)" filter="url(#sh)"/>
<text x="465" y="422" font-family="'Microsoft YaHei',sans-serif" font-size="12" font-weight="600" fill="white" text-anchor="middle">新能源态势</text>
<text x="465" y="446" font-family="'Microsoft YaHei',sans-serif" font-size="9" fill="#bdc3c7" text-anchor="middle">光伏/风电</text>
<rect x="630.0" y="391.0" width="210" height="78" rx="8" fill="url(#ggr)" filter="url(#sh)"/>
<text x="735" y="422" font-family="'Microsoft YaHei',sans-serif" font-size="12" font-weight="600" fill="white" text-anchor="middle">碳汇计量</text>
<text x="735" y="446" font-family="'Microsoft YaHei',sans-serif" font-size="9" fill="#bdc3c7" text-anchor="middle">核算体系</text>
<rect x="900.0" y="391.0" width="210" height="78" rx="8" fill="url(#ggr)" filter="url(#sh)"/>
<text x="1005" y="422" font-family="'Microsoft YaHei',sans-serif" font-size="12" font-weight="600" fill="white" text-anchor="middle">数据校验</text>
<text x="1005" y="446" font-family="'Microsoft YaHei',sans-serif" font-size="9" fill="#bdc3c7" text-anchor="middle">采集网络</text>

  <text x="600" y="560-20" font-family="'Microsoft YaHei',sans-serif" font-size="9" fill="#95a5a6" text-anchor="middle">数字荣成治理提升项目</text>
</svg>